# xmcd CD database file
#
# Track frame offsets:
#	150
#	15950
#	31396
#	49664
#	70059
#	90110
#	111703
#	125301
#	143231
#	154339
#
# Disc length: 2258 seconds
#
# Revision: 0
# Processed by: cddbd v1.4PL0 Copyright (c) Steve Scherf et al.
# Submitted via: CDex 1.40Beta8
#
DISCID=7b08d00a
DTITLE=John Lee Hooker - Jealous
DYEAR=1900
DGENRE=Blues
TTITLE0=Jealous
TTITLE1=Ninety Days
TTITLE2=Early One Mornin
TTITLE3=When My First Wife Left Me
TTITLE4=Boogie Woman
TTITLE5=Well Well
TTITLE6=I Don't Know
TTITLE7=We'll Meet Again
TTITLE8=Worried Life Blues
TTITLE9=Ninety Days
EXTD=ID3G: 0
EXTT0=
EXTT1=
EXTT2=
EXTT3=
EXTT4=
EXTT5=
EXTT6=
EXTT7=
EXTT8=
EXTT9=
PLAYORDER=
